<?xml version="1.0" encoding="UTF-8"?>
<svg id="Layer_1" data-name="Layer 1" xmlns="http://www.w3.org/2000/svg" viewBox="0 0 561.97 674">
<defs>
<style>
.cls-1 {
fill: #1e8676;
}
.cls-2 {
fill: #83c967;
}
</style>
</defs>
<path class="cls-1" d="m286.89,286.88h0C128.45,286.88,0,158.44,0,0c158.44,0,286.89,128.45,286.89,286.88"/>
<path class="cls-1" d="m299.41,286.88h0c108.51,0,196.48-89.54,196.48-200-108.51,0-196.48,89.54-196.48,200"/>
<path class="cls-2" d="m561.9,263.36c2.78,120.06-77.97,230.1-199.43,259.72-121.46,29.62-243.81-30.91-296.59-138.77l496.02-120.95Z"/>
<path class="cls-2" d="m382.77,605.89c7.2,29.54-10.91,59.33-40.45,66.53-29.54,7.2-59.33-10.91-66.53-40.45-7.2-29.54,10.91-59.33,40.45-66.53,29.54-7.2,59.33,10.91,66.53,40.45"/>
<path class="cls-2" d="m539.02,551.76c7.2,29.54-10.91,59.33-40.45,66.53s-59.33-10.91-66.53-40.45c-7.2-29.54,10.91-59.33,40.45-66.53,29.54-7.2,59.33,10.91,66.53,40.45"/>
</svg>
